<svg width="260" height="82" viewBox="0 0 260 82" fill="none" xmlns="http://www.w3.org/2000/svg">
<path d="M35.2146 0H24.6504V25.4971H35.2146V0Z" fill="white"/>
<path d="M10.5641 0H0V14.507L10.5641 25.4971V0Z" fill="white"/>
<path d="M10.5641 25.4971H0V39.5646H10.5641V25.4971Z" fill="white"/>
<path d="M24.652 25.4971H10.5664L18.9296 36.0475H24.652V25.4971Z" fill="white"/>
<path d="M45.7227 0.827148H72.0106V4.70949H60.9804V34.7975H56.7529V4.70949H45.7227V0.827148Z" fill="white"/>
<path d="M70.6973 22.4229C70.6973 19.8994 71.1831 17.6833 72.155 15.7745C73.1593 13.8656 74.5521 12.3936 76.3338 11.3583C78.1155 10.2907 80.1564 9.75684 82.4563 9.75684C84.724 9.75684 86.7324 10.226 88.4817 11.1642C90.2311 12.1024 91.6077 13.4612 92.6119 15.2406C93.6162 17.02 94.1506 19.1068 94.2155 21.501C94.2155 21.8569 94.1831 22.4229 94.1184 23.1995H74.876V23.539C74.9409 25.9657 75.6859 27.9067 77.1113 29.3626C78.5368 30.8185 80.3994 31.5465 82.6993 31.5465C84.481 31.5465 85.9874 31.1096 87.2184 30.2361C88.4817 29.3302 89.324 28.0848 89.7451 26.4994H93.7782C93.2922 29.0229 92.0775 31.0936 90.1337 32.7111C88.1902 34.2965 85.8091 35.0891 82.991 35.0891C80.529 35.0891 78.3747 34.5714 76.5283 33.5362C74.6817 32.4685 73.2402 30.9803 72.2035 29.0715C71.1993 27.1303 70.6973 24.9141 70.6973 22.4229ZM90.0853 19.8994C89.8909 17.7965 89.0972 16.1627 87.7042 14.998C86.3436 13.8333 84.6106 13.251 82.505 13.251C80.6261 13.251 78.9741 13.8656 77.5486 15.0951C76.1233 16.3245 75.3133 17.9259 75.119 19.8994H90.0853Z" fill="white"/>
<path d="M101.778 26.6448C101.842 28.1329 102.49 29.3461 103.721 30.2844C104.985 31.2225 106.604 31.6917 108.58 31.6917C110.33 31.6917 111.739 31.352 112.808 30.6725C113.909 29.9609 114.46 29.0388 114.46 27.9064C114.46 26.9359 114.201 26.1918 113.682 25.6741C113.164 25.1565 112.484 24.8006 111.642 24.6065C110.832 24.4124 109.666 24.2182 108.143 24.0241C106.005 23.7652 104.256 23.4255 102.895 23.005C101.535 22.5844 100.433 21.9212 99.5909 21.0153C98.7487 20.0772 98.3276 18.7991 98.3276 17.1815C98.3276 15.7256 98.7325 14.4315 99.5424 13.2992C100.385 12.1668 101.518 11.2933 102.944 10.6786C104.369 10.0315 105.973 9.70801 107.754 9.70801C110.67 9.70801 113.035 10.3874 114.849 11.7462C116.695 13.1051 117.716 15.0462 117.91 17.5697H113.925C113.763 16.2756 113.132 15.208 112.03 14.3668C110.929 13.5256 109.552 13.1051 107.9 13.1051C106.216 13.1051 104.855 13.4609 103.818 14.1727C102.782 14.8521 102.263 15.758 102.263 16.8903C102.263 17.7315 102.506 18.3786 102.992 18.8315C103.478 19.2844 104.094 19.5918 104.839 19.7535C105.616 19.9153 106.783 20.0932 108.337 20.2874C110.508 20.5461 112.289 20.902 113.682 21.355C115.108 21.8079 116.242 22.5358 117.084 23.5387C117.959 24.5417 118.396 25.9005 118.396 27.6153C118.396 29.1034 117.959 30.4138 117.084 31.5462C116.209 32.6784 115.027 33.5521 113.537 34.1667C112.047 34.7813 110.394 35.0888 108.58 35.0888C105.341 35.0888 102.733 34.3446 100.757 32.8565C98.8134 31.3682 97.8254 29.2977 97.793 26.6448H101.778Z" fill="white"/>
<path d="M124.568 13.6877H120.098V10.0481H124.568V3.1084H128.553V10.0481H134.821V13.6877H128.553V28.2951C128.553 29.3302 128.747 30.0745 129.136 30.5274C129.557 30.948 130.27 31.1583 131.274 31.1583H135.598V34.7979H131.031C128.698 34.7979 127.03 34.2803 126.026 33.245C125.054 32.2098 124.568 30.5759 124.568 28.3435V13.6877Z" fill="white"/>
<path d="M139.016 0.827148H144.361L156.411 29.0226L168.316 0.827148H173.564V34.7975H169.434V8.00946L158.161 34.7975H154.419L143.146 8.00946V34.7975H139.016V0.827148Z" fill="white"/>
<path d="M200.906 10.0479V34.7977H197.456L196.922 31.4978C195.043 33.8918 192.403 35.089 189.001 35.089C186.053 35.089 183.689 34.1831 181.907 32.3713C180.125 30.5594 179.234 27.7125 179.234 23.8302V10.0479H183.219V23.5875C183.219 26.1434 183.77 28.1006 184.871 29.4595C186.005 30.7859 187.608 31.4491 189.681 31.4491C191.949 31.4491 193.715 30.6405 194.978 29.0227C196.273 27.4052 196.922 25.205 196.922 22.4227V10.0479H200.906Z" fill="white"/>
<path d="M216.867 34.7975L229.842 0.827148H234.846L247.772 34.7975H243.252L239.657 25.6256H224.837L221.24 34.7975H216.867ZM226.1 21.7917H238.394L232.223 5.43741L226.1 21.7917Z" fill="white"/>
<path d="M251.621 0.827148H255.848V34.7975H251.621V0.827148Z" fill="white"/>
<path d="M45.7227 0.827148H72.0106V4.70949H60.9804V34.7975H56.7529V4.70949H45.7227V0.827148Z" stroke="white" stroke-width="0.470256"/>
<path d="M70.6973 22.4229C70.6973 19.8994 71.1831 17.6833 72.155 15.7745C73.1593 13.8656 74.5521 12.3936 76.3338 11.3583C78.1155 10.2907 80.1564 9.75684 82.4563 9.75684C84.724 9.75684 86.7324 10.226 88.4817 11.1642C90.2311 12.1024 91.6077 13.4612 92.6119 15.2406C93.6162 17.02 94.1506 19.1068 94.2155 21.501C94.2155 21.8569 94.1831 22.4229 94.1184 23.1995H74.876V23.539C74.9409 25.9657 75.6859 27.9067 77.1113 29.3626C78.5368 30.8185 80.3994 31.5465 82.6993 31.5465C84.481 31.5465 85.9874 31.1096 87.2184 30.2361C88.4817 29.3302 89.324 28.0848 89.7451 26.4994H93.7782C93.2922 29.0229 92.0775 31.0936 90.1337 32.7111C88.1902 34.2965 85.8091 35.0891 82.991 35.0891C80.529 35.0891 78.3747 34.5714 76.5283 33.5362C74.6817 32.4685 73.2402 30.9803 72.2035 29.0715C71.1993 27.1303 70.6973 24.9141 70.6973 22.4229ZM90.0853 19.8994C89.8909 17.7965 89.0972 16.1627 87.7042 14.998C86.3436 13.8333 84.6106 13.251 82.505 13.251C80.6261 13.251 78.9741 13.8656 77.5486 15.0951C76.1233 16.3245 75.3133 17.9259 75.119 19.8994H90.0853Z" stroke="white" stroke-width="0.470256"/>
<path d="M101.778 26.6448C101.842 28.1329 102.49 29.3461 103.721 30.2844C104.985 31.2225 106.604 31.6917 108.58 31.6917C110.33 31.6917 111.739 31.352 112.808 30.6725C113.909 29.9609 114.46 29.0388 114.46 27.9064C114.46 26.9359 114.201 26.1918 113.682 25.6741C113.164 25.1565 112.484 24.8006 111.642 24.6065C110.832 24.4124 109.666 24.2182 108.143 24.0241C106.005 23.7652 104.256 23.4255 102.895 23.005C101.535 22.5844 100.433 21.9212 99.5909 21.0153C98.7487 20.0772 98.3276 18.7991 98.3276 17.1815C98.3276 15.7256 98.7325 14.4315 99.5424 13.2992C100.385 12.1668 101.518 11.2933 102.944 10.6786C104.369 10.0315 105.973 9.70801 107.754 9.70801C110.67 9.70801 113.035 10.3874 114.849 11.7462C116.695 13.1051 117.716 15.0462 117.91 17.5697H113.925C113.763 16.2756 113.132 15.208 112.03 14.3668C110.929 13.5256 109.552 13.1051 107.9 13.1051C106.216 13.1051 104.855 13.4609 103.818 14.1727C102.782 14.8521 102.263 15.758 102.263 16.8903C102.263 17.7315 102.506 18.3786 102.992 18.8315C103.478 19.2844 104.094 19.5918 104.839 19.7535C105.616 19.9153 106.783 20.0932 108.337 20.2874C110.508 20.5461 112.289 20.902 113.682 21.355C115.108 21.8079 116.242 22.5358 117.084 23.5387C117.959 24.5417 118.396 25.9005 118.396 27.6153C118.396 29.1034 117.959 30.4138 117.084 31.5462C116.209 32.6784 115.027 33.5521 113.537 34.1667C112.047 34.7813 110.394 35.0888 108.58 35.0888C105.341 35.0888 102.733 34.3446 100.757 32.8565C98.8134 31.3682 97.8254 29.2977 97.793 26.6448H101.778Z" stroke="white" stroke-width="0.470256"/>
<path d="M124.568 13.6877H120.098V10.0481H124.568V3.1084H128.553V10.0481H134.821V13.6877H128.553V28.2951C128.553 29.3302 128.747 30.0745 129.136 30.5274C129.557 30.948 130.27 31.1583 131.274 31.1583H135.598V34.7979H131.031C128.698 34.7979 127.03 34.2803 126.026 33.245C125.054 32.2098 124.568 30.5759 124.568 28.3435V13.6877Z" stroke="white" stroke-width="0.470256"/>
<path d="M139.016 0.827148H144.361L156.411 29.0226L168.316 0.827148H173.564V34.7975H169.434V8.00946L158.161 34.7975H154.419L143.146 8.00946V34.7975H139.016V0.827148Z" stroke="white" stroke-width="0.470256"/>
<path d="M200.906 10.0479V34.7977H197.456L196.922 31.4978C195.043 33.8918 192.403 35.089 189.001 35.089C186.053 35.089 183.689 34.1831 181.907 32.3713C180.125 30.5594 179.234 27.7125 179.234 23.8302V10.0479H183.219V23.5875C183.219 26.1434 183.77 28.1006 184.871 29.4595C186.005 30.7859 187.608 31.4491 189.681 31.4491C191.949 31.4491 193.715 30.6405 194.978 29.0227C196.273 27.4052 196.922 25.205 196.922 22.4227V10.0479H200.906Z" stroke="white" stroke-width="0.470256"/>
<path d="M216.867 34.7975L229.842 0.827148H234.846L247.772 34.7975H243.252L239.657 25.6256H224.837L221.24 34.7975H216.867ZM226.1 21.7917H238.394L232.223 5.43741L226.1 21.7917Z" stroke="white" stroke-width="0.470256"/>
<path d="M251.621 0.827148H255.848V34.7975H251.621V0.827148Z" stroke="white" stroke-width="0.470256"/>
<path d="M0.00195312 56.1826H9.67214V57.9587H1.93599V63.154H8.33832V64.9301H1.93599V71.724H0.00195312V56.1826Z" fill="white"/>
<path d="M15.8567 71.8569C14.76 71.8569 13.7819 71.6127 12.9223 71.1242C12.0775 70.6357 11.418 69.9549 10.9438 69.0816C10.4695 68.2083 10.2324 67.2018 10.2324 66.0622C10.2324 64.9224 10.4695 63.916 10.9438 63.0427C11.418 62.1694 12.0775 61.4886 12.9223 61.0001C13.7819 60.5118 14.76 60.2676 15.8567 60.2676C16.9534 60.2676 17.9241 60.5118 18.7689 61.0001C19.6284 61.4886 20.2954 62.1694 20.7696 63.0427C21.2439 63.916 21.481 64.9224 21.481 66.0622C21.481 67.2018 21.2439 68.2083 20.7696 69.0816C20.2954 69.9549 19.6284 70.6357 18.7689 71.1242C17.9241 71.6127 16.9534 71.8569 15.8567 71.8569ZM15.8567 70.2362C16.5977 70.2362 17.2498 70.0586 17.813 69.7032C18.3909 69.3481 18.8355 68.8522 19.1468 68.2157C19.458 67.5792 19.6137 66.8615 19.6137 66.0622C19.6137 65.2629 19.458 64.545 19.1468 63.9086C18.8355 63.2721 18.3909 62.7764 17.813 62.4211C17.2498 62.0659 16.5977 61.8882 15.8567 61.8882C15.1157 61.8882 14.4562 62.0659 13.8782 62.4211C13.315 62.7764 12.8778 63.2721 12.5666 63.9086C12.2554 64.545 12.0998 65.2629 12.0998 66.0622C12.0998 66.8615 12.2554 67.5792 12.5666 68.2157C12.8778 68.8522 13.315 69.3481 13.8782 69.7032C14.4562 70.0586 15.1157 70.2362 15.8567 70.2362Z" fill="white"/>
<path d="M29.3298 60.4014V62.1774H28.4184C27.3366 62.1774 26.5586 62.5402 26.0843 63.2655C25.6247 63.9906 25.395 64.8862 25.395 65.9518V71.7244H23.5723V60.4014H25.1506L25.395 62.1109C25.7211 61.5929 26.1435 61.1784 26.6622 60.8676C27.181 60.5568 27.8996 60.4014 28.8186 60.4014H29.3298Z" fill="white"/>
<path d="M43.6452 60.2676C44.9198 60.2676 45.9498 60.6672 46.7353 61.4663C47.5354 62.2656 47.9356 63.5089 47.9356 65.1964V71.7238H46.1128V65.3073C46.1128 64.212 45.8757 63.3758 45.4015 62.7984C44.9419 62.2213 44.2825 61.9328 43.4229 61.9328C42.4744 61.9328 41.7259 62.2656 41.1775 62.9318C40.644 63.5978 40.3774 64.5081 40.3774 65.6626V71.7238H38.5545V65.3073C38.5545 64.212 38.3173 63.3758 37.8431 62.7984C37.3688 62.2213 36.6946 61.9328 35.8202 61.9328C34.9012 61.9328 34.1677 62.2879 33.6194 62.9984C33.0859 63.694 32.819 64.6116 32.819 65.7514V71.7238H30.9961V60.4007H32.5745L32.819 61.9548C33.6342 60.8301 34.7383 60.2676 36.1314 60.2676C36.9464 60.2676 37.6652 60.4525 38.2876 60.8226C38.9249 61.1778 39.3992 61.7106 39.7104 62.4211C40.5256 60.9855 41.8371 60.2676 43.6452 60.2676Z" fill="white"/>
<path d="M49.875 66.0622C49.875 64.9078 50.0973 63.8937 50.5418 63.0206C51.0014 62.1473 51.6387 61.4738 52.4537 61.0001C53.2689 60.5118 54.2025 60.2676 55.2547 60.2676C56.2921 60.2676 57.2109 60.4821 58.0112 60.9115C58.8116 61.3406 59.4414 61.9622 59.9008 62.7764C60.3602 63.5903 60.6048 64.545 60.6345 65.6403C60.6345 65.8032 60.6196 66.0622 60.5899 66.4174H51.7869V66.5728C51.8164 67.6829 52.1573 68.5711 52.8095 69.237C53.4614 69.9032 54.3136 70.2362 55.3659 70.2362C56.1811 70.2362 56.8702 70.0363 57.4334 69.6367C58.0112 69.2222 58.3966 68.6525 58.5893 67.9272H60.4343C60.2121 69.0816 59.6563 70.0289 58.7672 70.769C57.8779 71.4942 56.7887 71.8569 55.4992 71.8569C54.373 71.8569 53.3873 71.6201 52.5426 71.1464C51.6979 70.658 51.0384 69.9772 50.5641 69.1039C50.1047 68.2157 49.875 67.2018 49.875 66.0622ZM58.7449 64.9078C58.656 63.9457 58.2929 63.1981 57.6556 62.6653C57.0332 62.1325 56.2403 61.866 55.2769 61.866C54.4174 61.866 53.6616 62.1473 53.0095 62.7098C52.3573 63.2721 51.9869 64.0048 51.8979 64.9078H58.7449Z" fill="white"/>
<path d="M68.4706 60.4014V62.1774H67.5592C66.4772 62.1774 65.6992 62.5402 65.2249 63.2655C64.7655 63.9906 64.5358 64.8862 64.5358 65.9518V71.7244H62.7129V60.4014H64.2913L64.5358 62.1109C64.8619 61.5929 65.2843 61.1784 65.803 60.8676C66.3216 60.5568 67.0404 60.4014 67.9592 60.4014H68.4706Z" fill="white"/>
<path d="M70.1387 56.1826H71.9616V71.724H70.1387V56.1826Z" fill="white"/>
<path d="M75.2582 60.4014L78.7483 69.6373L82.1273 60.4014H84.0614L78.8372 73.6336C78.5706 74.3146 78.3334 74.8252 78.1258 75.1657C77.9184 75.506 77.659 75.7576 77.3478 75.9204C77.0366 76.0833 76.6217 76.1647 76.1029 76.1647H73.9244V74.4995H75.5471C75.9029 74.4995 76.1696 74.4626 76.3475 74.3886C76.5253 74.3146 76.6661 74.1887 76.7699 74.011C76.8884 73.8482 77.0291 73.5671 77.1922 73.1674L77.7702 71.813L73.3242 60.4014H75.2582Z" fill="white"/>
<path d="M104.785 62.5766C105.106 62.3517 105.533 62.3312 105.878 62.527L106.26 62.7463L117.606 69.1905V68.5575C117.607 68.0382 118.179 67.7133 118.637 67.9722L120.832 69.2153C121.045 69.336 121.178 69.5593 121.178 69.8006V71.8598C121.178 72.0361 121.107 72.2061 120.981 72.3327L119.946 73.37C119.558 73.8571 118.988 74.0502 118.48 73.7626L110.321 69.1144L110.317 77.8848C110.346 78.214 110.208 78.5365 109.945 78.7447C109.688 78.9489 109.688 78.9501 108.441 79.9401C108.254 80.1102 108.009 80.2051 107.753 80.2051C107.195 80.2051 106.742 79.7603 106.741 79.2119L106.743 67.0819L105.369 66.3002L104.674 66.693C104.641 66.7157 104.651 66.709 103.95 67.1067C103.456 67.3908 102.834 67.2412 102.549 66.7596C102.481 66.645 102.481 66.6442 102.162 66.1018L101.776 65.4497C101.489 64.9624 101.643 64.3523 102.133 64.0733C102.253 64.0054 102.254 64.005 102.809 63.6918L104.483 62.7443L104.785 62.5766ZM108.568 52.1435C108.9 52.1593 109.227 52.2655 109.456 52.4256L114.546 55.3161L114.828 55.4725C114.849 55.484 116.546 56.4487 120.002 58.4124L120.284 58.5727C120.56 58.7298 120.786 58.954 120.943 59.2248C121.098 59.4928 121.179 59.7978 121.176 60.1018L121.178 65.7338C121.178 66.2543 120.604 66.5796 120.145 66.3191L117.949 65.0723C117.737 64.9515 117.606 64.7281 117.606 64.487V61.1028L113.135 58.5612C113.096 58.5424 113.008 58.493 112.766 58.3552L108.484 55.9206L104.029 58.4487C103.986 58.4762 103.985 58.4766 103.96 58.4926C103.944 58.5018 103.649 58.6713 103.645 58.6736L99.3628 61.1028V71.4709L103.836 74.0144C103.864 74.0285 103.927 74.0623 104.212 74.2241L104.304 74.3042L104.38 74.4051C104.549 74.5322 104.651 74.7294 104.651 74.941V77.4252C104.651 77.9514 104.066 78.2751 103.601 77.9993L102.425 77.2575L102.144 77.1012C102.124 77.09 100.498 76.1679 96.9669 74.1611L96.6864 74.0029C96.4097 73.846 96.1826 73.6199 96.0258 73.3489C95.871 73.0802 95.7898 72.7749 95.793 72.4719L95.791 66.2867V60.0922C95.791 59.7632 95.8862 59.4417 96.062 59.1656C96.2359 58.8888 96.4875 58.6609 96.7493 58.5364L101.856 55.6365L102.135 55.4762C102.227 55.4241 102.229 55.4237 102.417 55.3181L107.308 52.542L107.593 52.376C107.89 52.2077 108.227 52.1281 108.568 52.1435Z" fill="white"/>
<path fill-rule="evenodd" clip-rule="evenodd" d="M128.502 71.9248C128.374 71.9248 128.261 71.8774 128.165 71.7831C128.068 71.6886 128.02 71.5783 128.02 71.4524V59.1666C128.02 59.0284 128.068 58.9148 128.165 58.8267C128.261 58.7383 128.374 58.6943 128.502 58.6943H131.206C131.347 58.6943 131.463 58.7383 131.553 58.8267C131.643 58.9148 131.688 59.0284 131.688 59.1666V68.9576H137.481C137.623 68.9576 137.742 69.0047 137.838 69.0992C137.935 69.1939 137.983 69.3102 137.983 69.4488V71.4524C137.983 71.591 137.935 71.7046 137.838 71.7927C137.742 71.8807 137.623 71.9248 137.481 71.9248H128.502ZM138.85 71.9248C138.747 71.9248 138.654 71.884 138.57 71.8018C138.487 71.7198 138.445 71.6285 138.445 71.5277C138.445 71.4524 138.451 71.3955 138.464 71.3577L142.963 59.2424C143.092 58.8769 143.349 58.6943 143.735 58.6943H146.748C147.134 58.6943 147.391 58.8769 147.52 59.2424L152.019 71.3577C152.032 71.3955 152.038 71.4524 152.038 71.5277C152.038 71.6285 151.996 71.7198 151.913 71.8018C151.829 71.884 151.736 71.9248 151.633 71.9248H149.123C148.814 71.9248 148.595 71.7862 148.466 71.5088L147.771 69.6757H142.712L142.017 71.5088C141.888 71.7862 141.669 71.9248 141.36 71.9248H138.85ZM143.528 66.8412H146.965L145.247 62.0214L143.528 66.8412ZM154.012 71.9248C153.871 71.9248 153.752 71.8807 153.655 71.7927C153.559 71.7044 153.51 71.591 153.51 71.4524V59.1856C153.51 59.0471 153.559 58.9304 153.655 58.8361C153.752 58.7416 153.871 58.6943 154.012 58.6943H156.194C156.516 58.6943 156.748 58.833 156.889 59.11L160.21 64.9314L163.551 59.11C163.692 58.833 163.924 58.6943 164.246 58.6943H166.428C166.57 58.6943 166.688 58.7416 166.785 58.8361C166.882 58.9304 166.93 59.0471 166.93 59.1856V71.4524C166.93 71.591 166.882 71.7044 166.785 71.7927C166.688 71.8807 166.57 71.9248 166.428 71.9248H163.976C163.847 71.9248 163.734 71.8774 163.638 71.7831C163.541 71.6886 163.493 71.5783 163.493 71.4524V64.5722L161.407 68.3149C161.24 68.6046 161.015 68.7495 160.732 68.7495H159.689C159.431 68.7495 159.206 68.6046 159.013 68.3149L156.947 64.5722V71.4524C156.947 71.591 156.899 71.7044 156.803 71.7927C156.706 71.8807 156.587 71.9248 156.445 71.9248H154.012ZM170.033 71.9248C169.905 71.9248 169.792 71.8774 169.695 71.7831C169.599 71.6886 169.551 71.5783 169.551 71.4524V59.1856C169.551 59.0471 169.595 58.9304 169.686 58.8361C169.776 58.7416 169.892 58.6943 170.033 58.6943H176C177.634 58.6943 178.851 59.0217 179.649 59.6772C180.447 60.3324 180.846 61.2646 180.846 62.4743C180.846 63.0794 180.682 63.6022 180.354 64.0431C180.026 64.4841 179.662 64.8055 179.263 65.0072C179.791 65.2338 180.235 65.6087 180.595 66.1317C180.956 66.6546 181.136 67.2438 181.136 67.8988C181.136 69.1714 180.708 70.1607 179.852 70.8665C178.996 71.5719 177.77 71.9248 176.173 71.9248H170.033ZM175.599 63.9283C176.075 63.9283 176.442 63.8023 176.699 63.5503C176.956 63.2982 177.085 62.971 177.085 62.5681C177.085 62.1774 176.96 61.8595 176.709 61.6139C176.458 61.3681 176.088 61.2455 175.599 61.2455H173.187V63.9283H175.599ZM175.773 69.3719C176.274 69.3719 176.664 69.23 176.94 68.9467C177.217 68.6636 177.355 68.3141 177.355 67.8982C177.355 67.4701 177.214 67.1144 176.931 66.8307C176.648 66.5476 176.262 66.4058 175.773 66.4058H173.187V69.3719H175.773ZM183.694 71.9248C183.565 71.9248 183.452 71.8774 183.356 71.7831C183.259 71.6886 183.211 71.5783 183.211 71.4524V59.1856C183.211 59.0471 183.256 58.9304 183.346 58.8361C183.436 58.7416 183.552 58.6943 183.694 58.6943H188.772C190.677 58.6943 192.157 59.1383 193.213 60.0268C194.268 60.915 194.822 62.1909 194.873 63.8541C194.886 64.2196 194.893 64.7047 194.893 65.3096C194.893 65.9144 194.886 66.393 194.873 66.746C194.745 70.1984 192.743 71.9248 188.868 71.9248H183.694ZM188.772 69.0896C189.582 69.0896 190.181 68.9006 190.568 68.5226C190.954 68.1446 191.159 67.5396 191.185 66.7079C191.211 66.3426 191.224 65.8701 191.224 65.2905C191.224 64.7108 191.211 64.2446 191.185 63.8918C191.159 63.0854 190.937 62.49 190.519 62.1057C190.101 61.7213 189.486 61.5292 188.675 61.5292H186.841V69.0896H188.772ZM196.34 71.9248C196.237 71.9248 196.145 71.884 196.061 71.8018C195.977 71.7198 195.936 71.6285 195.936 71.5277C195.936 71.4524 195.942 71.3955 195.953 71.3577L200.453 59.2424C200.582 58.8769 200.838 58.6943 201.226 58.6943H204.238C204.623 58.6943 204.881 58.8769 205.01 59.2424L209.508 71.3577C209.522 71.3955 209.528 71.4524 209.528 71.5277C209.528 71.6285 209.487 71.7198 209.403 71.8018C209.319 71.884 209.225 71.9248 209.123 71.9248H206.613C206.304 71.9248 206.085 71.7862 205.956 71.5088L205.26 69.6757H200.201L199.507 71.5088C199.378 71.7862 199.159 71.9248 198.85 71.9248H196.34ZM201.012 66.8412H204.449L202.731 62.0214L201.012 66.8412Z" fill="white"/>
<path fill-rule="evenodd" clip-rule="evenodd" d="M213.537 72.1134C213.396 72.1134 213.277 72.0693 213.181 71.9813C213.084 71.8932 213.037 71.7796 213.037 71.641V61.9636H209.637C209.496 61.9636 209.377 61.9195 209.281 61.8314C209.184 61.7432 209.135 61.6297 209.135 61.4911V59.3742C209.135 59.2359 209.184 59.1192 209.281 59.0247C209.377 58.9302 209.496 58.8829 209.637 58.8829H220.123C220.264 58.8829 220.383 58.9302 220.479 59.0247C220.577 59.1192 220.624 59.2359 220.624 59.3742V61.4911C220.624 61.6297 220.577 61.7432 220.479 61.8314C220.383 61.9195 220.264 61.9636 220.123 61.9636H216.724V71.641C216.724 71.7796 216.675 71.8932 216.579 71.9813C216.483 72.0693 216.364 72.1134 216.223 72.1134H213.537ZM222.811 72.1134C222.684 72.1134 222.571 72.0662 222.473 71.9717C222.377 71.8772 222.328 71.7669 222.328 71.641V59.3742C222.328 59.2359 222.373 59.1192 222.465 59.0247C222.555 58.9302 222.67 58.8829 222.811 58.8829H231.925C232.068 58.8829 232.187 58.9302 232.283 59.0247C232.378 59.1192 232.427 59.2359 232.427 59.3742V61.2455C232.427 61.3841 232.378 61.4974 232.283 61.5854C232.187 61.6739 232.068 61.718 231.925 61.718H225.824V64.1184H231.501C231.641 64.1184 231.761 64.1657 231.858 64.26C231.954 64.3547 232.003 64.471 232.003 64.6099V66.3297C232.003 66.4683 231.954 66.5849 231.858 66.6794C231.761 66.7739 231.641 66.8213 231.501 66.8213H225.824V69.2784H232.079C232.222 69.2784 232.341 69.3256 232.437 69.4199C232.533 69.5146 232.582 69.631 232.582 69.7696V71.641C232.582 71.7796 232.533 71.8932 232.437 71.9813C232.341 72.0693 232.222 72.1134 232.079 72.1134H222.811ZM239.84 72.3026C238.593 72.3026 237.529 72.1263 236.654 71.7733C235.78 71.4207 235.117 70.9545 234.666 70.3745C234.216 69.7954 233.977 69.1652 233.952 68.4846C233.952 68.3713 233.993 68.2768 234.077 68.2011C234.161 68.1257 234.261 68.0878 234.376 68.0878H236.945C237.099 68.0878 237.225 68.113 237.32 68.1636C237.418 68.2138 237.524 68.3018 237.639 68.4277C237.807 68.7302 238.067 68.9791 238.421 69.1745C238.775 69.37 239.248 69.4676 239.84 69.4676C240.536 69.4676 241.07 69.3635 241.443 69.156C241.817 68.9478 242.002 68.6612 242.002 68.2958C242.002 68.0314 241.906 67.8137 241.713 67.6439C241.521 67.4736 241.212 67.3221 240.786 67.1899C240.362 67.0579 239.75 66.9098 238.953 66.746C237.395 66.4435 236.229 65.9835 235.457 65.366C234.685 64.7487 234.3 63.8666 234.3 62.7201C234.3 61.9388 234.521 61.2426 234.965 60.6315C235.408 60.0202 236.04 59.5448 236.857 59.2045C237.674 58.8642 238.624 58.6943 239.705 58.6943C240.837 58.6943 241.82 58.8864 242.649 59.2705C243.48 59.6551 244.117 60.1336 244.561 60.7069C245.005 61.2805 245.242 61.8441 245.267 62.3988C245.267 62.512 245.228 62.6098 245.15 62.6916C245.073 62.7736 244.978 62.8144 244.86 62.8144H242.159C241.875 62.8144 241.656 62.7012 241.502 62.4741C241.424 62.2096 241.224 61.986 240.902 61.8033C240.581 61.6208 240.182 61.5294 239.705 61.5294C239.166 61.5294 238.745 61.6239 238.45 61.8129C238.155 62.0017 238.006 62.2791 238.006 62.6444C238.006 63.0099 238.2 63.2965 238.585 63.5044C238.972 63.7125 239.694 63.9234 240.747 64.1376C241.957 64.3517 242.921 64.6196 243.635 64.9408C244.35 65.2619 244.876 65.6782 245.218 66.1882C245.56 66.6987 245.73 67.3446 245.73 68.1257C245.73 68.9824 245.478 69.7259 244.978 70.3559C244.475 70.9859 243.779 71.4678 242.892 71.8018C242.002 72.1359 240.986 72.3026 239.84 72.3026ZM251.057 72.1134C250.917 72.1134 250.797 72.0693 250.702 71.9813C250.604 71.8932 250.555 71.7796 250.555 71.641V61.9636H247.157C247.017 61.9636 246.897 61.9195 246.802 61.8314C246.704 61.7432 246.657 61.6297 246.657 61.4911V59.3742C246.657 59.2359 246.704 59.1192 246.802 59.0247C246.897 58.9302 247.017 58.8829 247.157 58.8829H257.641C257.784 58.8829 257.903 58.9302 257.999 59.0247C258.097 59.1192 258.144 59.2359 258.144 59.3742V61.4911C258.144 61.6297 258.097 61.7432 257.999 61.8314C257.903 61.9195 257.784 61.9636 257.641 61.9636H254.244V71.641C254.244 71.7796 254.195 71.8932 254.099 71.9813C254.003 72.0693 253.884 72.1134 253.741 72.1134H251.057Z" fill="white"/>
</svg>
