<svg width="197" height="62" viewBox="0 0 197 62" fill="none" xmlns="http://www.w3.org/2000/svg">
<path d="M26.6822 0H18.6777V19.2783H26.6822V0Z" fill="#121212"/>
<path d="M8.00433 0H0V10.9687L8.00433 19.2783V0Z" fill="#121212"/>
<path d="M8.00433 19.2783H0V29.9147H8.00433V19.2783Z" fill="#121212"/>
<path d="M18.6784 19.2783H8.00586L14.3426 27.2555H18.6784V19.2783Z" fill="#121212"/>
<path d="M34.6426 0.625H54.5608V3.56043H46.2032V26.3099H43.0001V3.56043H34.6426V0.625Z" fill="#121212"/>
<path d="M53.5664 16.9537C53.5664 15.0457 53.9345 13.3701 54.6709 11.9269C55.4318 10.4836 56.4872 9.37061 57.8372 8.58783C59.1871 7.78059 60.7335 7.37695 62.4761 7.37695C64.1943 7.37695 65.7161 7.73165 67.0415 8.44105C68.367 9.15045 69.4101 10.1778 70.171 11.5232C70.9319 12.8686 71.3368 14.4464 71.386 16.2567C71.386 16.5258 71.3614 16.9537 71.3124 17.5409H56.7326V17.7976C56.7818 19.6324 57.3463 21.1 58.4262 22.2008C59.5063 23.3016 60.9176 23.8521 62.6603 23.8521C64.0102 23.8521 65.1516 23.5217 66.0844 22.8613C67.0415 22.1763 67.6798 21.2347 67.9988 20.036H71.0547C70.6864 21.944 69.766 23.5096 68.2933 24.7326C66.8207 25.9313 65.0165 26.5306 62.8812 26.5306C61.0158 26.5306 59.3835 26.1392 57.9845 25.3565C56.5854 24.5492 55.4932 23.424 54.7077 21.9807C53.9468 20.513 53.5664 18.8373 53.5664 16.9537ZM68.2565 15.0457C68.1093 13.4557 67.5079 12.2204 66.4524 11.3398C65.4215 10.4591 64.1084 10.0188 62.513 10.0188C61.0894 10.0188 59.8377 10.4836 58.7576 11.4132C57.6776 12.3427 57.064 13.5536 56.9167 15.0457H68.2565Z" fill="#121212"/>
<path d="M77.1148 20.1457C77.1639 21.2708 77.6547 22.1882 78.5874 22.8976C79.5447 23.6069 80.7719 23.9616 82.2693 23.9616C83.5947 23.9616 84.6623 23.7048 85.4724 23.1911C86.3069 22.653 86.7241 21.9558 86.7241 21.0996C86.7241 20.3658 86.5277 19.8032 86.1351 19.4117C85.7424 19.0204 85.2269 18.7513 84.5887 18.6046C83.9752 18.4578 83.0915 18.3109 81.9379 18.1642C80.3179 17.9685 78.9924 17.7116 77.9616 17.3936C76.9307 17.0757 76.0962 16.5742 75.458 15.8892C74.8199 15.1799 74.5008 14.2136 74.5008 12.9905C74.5008 11.8897 74.8076 10.9113 75.4212 10.0551C76.0593 9.19894 76.9184 8.53848 77.9984 8.0737C79.0783 7.58446 80.2934 7.33984 81.6433 7.33984C83.8524 7.33984 85.6442 7.85354 87.0186 8.88094C88.4177 9.90834 89.1909 11.376 89.3382 13.2841H86.3192C86.1964 12.3056 85.7178 11.4984 84.8833 10.8623C84.0488 10.2263 83.0056 9.90834 81.7538 9.90834C80.4775 9.90834 79.4465 10.1774 78.6611 10.7156C77.8757 11.2293 77.4829 11.9142 77.4829 12.7704C77.4829 13.4064 77.667 13.8956 78.0353 14.2381C78.4033 14.5806 78.8698 14.813 79.4343 14.9352C80.0233 15.0576 80.907 15.192 82.0852 15.3389C83.7296 15.5345 85.0796 15.8036 86.1351 16.1461C87.215 16.4886 88.0741 17.0389 88.7122 17.7972C89.3751 18.5555 89.7064 19.583 89.7064 20.8795C89.7064 22.0047 89.3751 22.9955 88.7122 23.8517C88.0495 24.7077 87.1537 25.3683 86.0246 25.833C84.8956 26.2977 83.6437 26.5302 82.2693 26.5302C79.8148 26.5302 77.8389 25.9675 76.3417 24.8423C74.8689 23.717 74.1203 22.1515 74.0957 20.1457H77.1148Z" fill="#121212"/>
<path d="M94.3833 10.3486H90.9961V7.59667H94.3833V2.34961H97.4023V7.59667H102.152V10.3486H97.4023V21.3932C97.4023 22.1759 97.5497 22.7386 97.8441 23.0811C98.1632 23.3991 98.7032 23.558 99.4641 23.558H102.741V26.31H99.28C97.5128 26.31 96.2487 25.9186 95.4878 25.1358C94.7515 24.3531 94.3833 23.1177 94.3833 21.4298V10.3486Z" fill="#121212"/>
<path d="M105.33 0.625H109.38L118.511 21.9435L127.531 0.625H131.507V26.3099H128.378V6.05553L119.836 26.3099H117.001L108.46 6.05553V26.3099H105.33V0.625Z" fill="#121212"/>
<path d="M152.225 7.59668V26.31H149.611L149.207 23.8149C147.783 25.625 145.782 26.5302 143.205 26.5302C140.971 26.5302 139.18 25.8453 137.83 24.4754C136.48 23.1054 135.805 20.9529 135.805 18.0175V7.59668H138.824V17.834C138.824 19.7665 139.241 21.2463 140.075 22.2738C140.935 23.2767 142.15 23.7781 143.72 23.7781C145.439 23.7781 146.776 23.1667 147.733 21.9435C148.715 20.7205 149.207 19.057 149.207 16.9533V7.59668H152.225Z" fill="#121212"/>
<path d="M164.318 26.3099L174.149 0.625H177.941L187.735 26.3099H184.31L181.586 19.3751H170.357L167.632 26.3099H164.318ZM171.314 16.4763H180.629L175.953 4.11081L171.314 16.4763Z" fill="#121212"/>
<path d="M190.652 0.625H193.855V26.3099H190.652V0.625Z" fill="#121212"/>
<path d="M34.6426 0.625H54.5608V3.56043H46.2032V26.3099H43.0001V3.56043H34.6426V0.625Z" stroke="#121212" stroke-width="0.470256"/>
<path d="M53.5664 16.9537C53.5664 15.0457 53.9345 13.3701 54.6709 11.9269C55.4318 10.4836 56.4872 9.37061 57.8372 8.58783C59.1871 7.78059 60.7335 7.37695 62.4761 7.37695C64.1943 7.37695 65.7161 7.73165 67.0415 8.44105C68.367 9.15045 69.4101 10.1778 70.171 11.5232C70.9319 12.8686 71.3368 14.4464 71.386 16.2567C71.386 16.5258 71.3614 16.9537 71.3124 17.5409H56.7326V17.7976C56.7818 19.6324 57.3463 21.1 58.4262 22.2008C59.5063 23.3016 60.9176 23.8521 62.6603 23.8521C64.0102 23.8521 65.1516 23.5217 66.0844 22.8613C67.0415 22.1763 67.6798 21.2347 67.9988 20.036H71.0547C70.6864 21.944 69.766 23.5096 68.2933 24.7326C66.8207 25.9313 65.0165 26.5306 62.8812 26.5306C61.0158 26.5306 59.3835 26.1392 57.9845 25.3565C56.5854 24.5492 55.4932 23.424 54.7077 21.9807C53.9468 20.513 53.5664 18.8373 53.5664 16.9537ZM68.2565 15.0457C68.1093 13.4557 67.5079 12.2204 66.4524 11.3398C65.4215 10.4591 64.1084 10.0188 62.513 10.0188C61.0894 10.0188 59.8377 10.4836 58.7576 11.4132C57.6776 12.3427 57.064 13.5536 56.9167 15.0457H68.2565Z" stroke="#121212" stroke-width="0.470256"/>
<path d="M77.1148 20.1457C77.1639 21.2708 77.6547 22.1882 78.5874 22.8976C79.5447 23.6069 80.7719 23.9616 82.2693 23.9616C83.5947 23.9616 84.6623 23.7048 85.4724 23.1911C86.3069 22.653 86.7241 21.9558 86.7241 21.0996C86.7241 20.3658 86.5277 19.8032 86.1351 19.4117C85.7424 19.0204 85.2269 18.7513 84.5887 18.6046C83.9752 18.4578 83.0915 18.3109 81.9379 18.1642C80.3179 17.9685 78.9924 17.7116 77.9616 17.3936C76.9307 17.0757 76.0962 16.5742 75.458 15.8892C74.8199 15.1799 74.5008 14.2136 74.5008 12.9905C74.5008 11.8897 74.8076 10.9113 75.4212 10.0551C76.0593 9.19894 76.9184 8.53848 77.9984 8.0737C79.0783 7.58446 80.2934 7.33984 81.6433 7.33984C83.8524 7.33984 85.6442 7.85354 87.0186 8.88094C88.4177 9.90834 89.1909 11.376 89.3382 13.2841H86.3192C86.1964 12.3056 85.7178 11.4984 84.8833 10.8623C84.0488 10.2263 83.0056 9.90834 81.7538 9.90834C80.4775 9.90834 79.4465 10.1774 78.6611 10.7156C77.8757 11.2293 77.4829 11.9142 77.4829 12.7704C77.4829 13.4064 77.667 13.8956 78.0353 14.2381C78.4033 14.5806 78.8698 14.813 79.4343 14.9352C80.0233 15.0576 80.907 15.192 82.0852 15.3389C83.7296 15.5345 85.0796 15.8036 86.1351 16.1461C87.215 16.4886 88.0741 17.0389 88.7122 17.7972C89.3751 18.5555 89.7064 19.583 89.7064 20.8795C89.7064 22.0047 89.3751 22.9955 88.7122 23.8517C88.0495 24.7077 87.1537 25.3683 86.0246 25.833C84.8956 26.2977 83.6437 26.5302 82.2693 26.5302C79.8148 26.5302 77.8389 25.9675 76.3417 24.8423C74.8689 23.717 74.1203 22.1515 74.0957 20.1457H77.1148Z" stroke="#121212" stroke-width="0.470256"/>
<path d="M94.3833 10.3486H90.9961V7.59667H94.3833V2.34961H97.4023V7.59667H102.152V10.3486H97.4023V21.3932C97.4023 22.1759 97.5497 22.7386 97.8441 23.0811C98.1632 23.3991 98.7032 23.558 99.4641 23.558H102.741V26.31H99.28C97.5128 26.31 96.2487 25.9186 95.4878 25.1358C94.7515 24.3531 94.3833 23.1177 94.3833 21.4298V10.3486Z" stroke="#121212" stroke-width="0.470256"/>
<path d="M105.33 0.625H109.38L118.511 21.9435L127.531 0.625H131.507V26.3099H128.378V6.05553L119.836 26.3099H117.001L108.46 6.05553V26.3099H105.33V0.625Z" stroke="#121212" stroke-width="0.470256"/>
<path d="M152.225 7.59668V26.31H149.611L149.207 23.8149C147.783 25.625 145.782 26.5302 143.205 26.5302C140.971 26.5302 139.18 25.8453 137.83 24.4754C136.48 23.1054 135.805 20.9529 135.805 18.0175V7.59668H138.824V17.834C138.824 19.7665 139.241 21.2463 140.075 22.2738C140.935 23.2767 142.15 23.7781 143.72 23.7781C145.439 23.7781 146.776 23.1667 147.733 21.9435C148.715 20.7205 149.207 19.057 149.207 16.9533V7.59668H152.225Z" stroke="#121212" stroke-width="0.470256"/>
<path d="M164.318 26.3099L174.149 0.625H177.941L187.735 26.3099H184.31L181.586 19.3751H170.357L167.632 26.3099H164.318ZM171.314 16.4763H180.629L175.953 4.11081L171.314 16.4763Z" stroke="#121212" stroke-width="0.470256"/>
<path d="M190.652 0.625H193.855V26.3099H190.652V0.625Z" stroke="#121212" stroke-width="0.470256"/>
<path d="M0.00195312 42.4795H7.32898V43.8224H1.46736V47.7505H6.31836V49.0934H1.46736V54.2303H0.00195312V42.4795Z" fill="#121212"/>
<path d="M12.0154 54.331C11.1844 54.331 10.4433 54.1464 9.792 53.777C9.15194 53.4077 8.65224 52.8929 8.2929 52.2326C7.93358 51.5723 7.75391 50.8113 7.75391 49.9497C7.75391 49.0879 7.93358 48.3269 8.2929 47.6666C8.65224 47.0063 9.15194 46.4916 9.792 46.1222C10.4433 45.753 11.1844 45.5684 12.0154 45.5684C12.8463 45.5684 13.5818 45.753 14.2219 46.1222C14.8731 46.4916 15.3785 47.0063 15.7379 47.6666C16.0972 48.3269 16.2769 49.0879 16.2769 49.9497C16.2769 50.8113 16.0972 51.5723 15.7379 52.2326C15.3785 52.8929 14.8731 53.4077 14.2219 53.777C13.5818 54.1464 12.8463 54.331 12.0154 54.331ZM12.0154 53.1056C12.5768 53.1056 13.0709 52.9713 13.4976 52.7026C13.9356 52.4341 14.2724 52.0592 14.5083 51.5779C14.7441 51.0967 14.862 50.554 14.862 49.9497C14.862 49.3453 14.7441 48.8025 14.5083 48.3213C14.2724 47.8401 13.9356 47.4653 13.4976 47.1966C13.0709 46.9281 12.5768 46.7937 12.0154 46.7937C11.4539 46.7937 10.9542 46.9281 10.5163 47.1966C10.0896 47.4653 9.75831 47.8401 9.52249 48.3213C9.28668 48.8025 9.16878 49.3453 9.16878 49.9497C9.16878 50.554 9.28668 51.0967 9.52249 51.5779C9.75831 52.0592 10.0896 52.4341 10.5163 52.7026C10.9542 52.9713 11.4539 53.1056 12.0154 53.1056Z" fill="#121212"/>
<path d="M22.2218 45.6689V47.0118H21.5313C20.7116 47.0118 20.1221 47.2861 19.7627 47.8345C19.4145 48.3828 19.2404 49.0599 19.2404 49.8656V54.2303H17.8594V45.6689H19.0553L19.2404 46.9615C19.4875 46.5699 19.8076 46.2565 20.2006 46.0215C20.5937 45.7865 21.1382 45.6689 21.8345 45.6689H22.2218Z" fill="#121212"/>
<path d="M33.0705 45.5684C34.0362 45.5684 34.8166 45.8705 35.4118 46.4747C36.018 47.0791 36.3212 48.0191 36.3212 49.295V54.2303H34.9402V49.3788C34.9402 48.5507 34.7605 47.9185 34.4012 47.4819C34.0529 47.0456 33.5533 46.8274 32.902 46.8274C32.1834 46.8274 31.6162 47.0791 31.2007 47.5828C30.7965 48.0863 30.5945 48.7746 30.5945 49.6475V54.2303H29.2133V49.3788C29.2133 48.5507 29.0336 47.9185 28.6742 47.4819C28.3149 47.0456 27.804 46.8274 27.1415 46.8274C26.4452 46.8274 25.8894 47.0959 25.474 47.6331C25.0697 48.1591 24.8676 48.8529 24.8676 49.7147V54.2303H23.4863V45.669H24.6823L24.8676 46.8441C25.4852 45.9937 26.3218 45.5684 27.3773 45.5684C27.9948 45.5684 28.5395 45.7082 29.0111 45.988C29.4939 46.2566 29.8533 46.6594 30.0891 47.1966C30.7067 46.1112 31.7005 45.5684 33.0705 45.5684Z" fill="#121212"/>
<path d="M37.7891 49.9497C37.7891 49.0768 37.9575 48.3101 38.2943 47.6499C38.6425 46.9896 39.1254 46.4804 39.7429 46.1222C40.3606 45.753 41.068 45.5684 41.8652 45.5684C42.6513 45.5684 43.3474 45.7306 43.9538 46.0552C44.5602 46.3797 45.0375 46.8497 45.3856 47.4653C45.7336 48.0807 45.9189 48.8025 45.9415 49.6307C45.9415 49.7538 45.9302 49.9497 45.9077 50.2182H39.2377V50.3357C39.26 51.1751 39.5184 51.8466 40.0125 52.3501C40.5065 52.8538 41.1521 53.1056 41.9495 53.1056C42.5671 53.1056 43.0893 52.9545 43.516 52.6523C43.9538 52.3389 44.2458 51.9082 44.3918 51.3597H45.7898C45.6214 52.2326 45.2003 52.9489 44.5266 53.5085C43.8528 54.0567 43.0275 54.331 42.0505 54.331C41.1972 54.331 40.4503 54.152 39.8103 53.7938C39.1703 53.4245 38.6705 52.9097 38.3112 52.2494C37.9631 51.5779 37.7891 50.8113 37.7891 49.9497ZM44.5097 49.0768C44.4423 48.3494 44.1673 47.7841 43.6844 47.3813C43.2128 46.9784 42.612 46.7769 41.8821 46.7769C41.2308 46.7769 40.6582 46.9896 40.164 47.4149C39.6699 47.8401 39.3892 48.3941 39.3218 49.0768H44.5097Z" fill="#121212"/>
<path d="M51.8802 45.6689V47.0118H51.1896C50.3698 47.0118 49.7803 47.2861 49.4209 47.8345C49.0728 48.3828 48.8988 49.0599 48.8988 49.8656V54.2303H47.5176V45.6689H48.7135L48.8988 46.9615C49.1459 46.5699 49.466 46.2565 49.8589 46.0215C50.2519 45.7865 50.7965 45.6689 51.4927 45.6689H51.8802Z" fill="#121212"/>
<path d="M53.1426 42.4795H54.5238V54.2303H53.1426V42.4795Z" fill="#121212"/>
<path d="M57.0239 45.6689L59.6683 52.6522L62.2286 45.6689H63.6941L59.7357 55.6738C59.5337 56.1887 59.354 56.5747 59.1967 56.8322C59.0396 57.0895 58.843 57.2798 58.6072 57.4029C58.3714 57.526 58.0571 57.5876 57.664 57.5876H56.0133V56.3285H57.2429C57.5124 56.3285 57.7145 56.3006 57.8493 56.2447C57.9841 56.1887 58.0907 56.0935 58.1694 55.9592C58.2591 55.8361 58.3658 55.6235 58.4893 55.3213L58.9273 54.2973L55.5586 45.6689H57.0239Z" fill="#121212"/>
<path d="M79.3945 47.3137C79.638 47.1437 79.9617 47.1282 80.2232 47.2762L80.5125 47.442L89.1091 52.3145V51.8359C89.1096 51.4432 89.543 51.1976 89.8902 51.3933L91.5535 52.3332C91.715 52.4244 91.8153 52.5933 91.8154 52.7758V54.3327C91.8154 54.466 91.7615 54.5946 91.6664 54.6902L90.8824 55.4745C90.5884 55.8428 90.1566 55.9888 89.7715 55.7714L83.5893 52.2569L83.5863 58.8882C83.6081 59.1371 83.5035 59.381 83.3043 59.5383C83.1095 59.6928 83.1094 59.6936 82.1645 60.4422C82.0229 60.5708 81.8376 60.6425 81.6437 60.6425C81.2208 60.6425 80.8773 60.3063 80.877 59.8916L80.8785 50.7202L79.8371 50.1291L79.3105 50.4261C79.2855 50.4432 79.2935 50.4382 78.7623 50.7389C78.3879 50.9537 77.9163 50.8406 77.7006 50.4765C77.6493 50.3898 77.6489 50.3892 77.407 49.9791L77.1148 49.4861C76.8975 49.1176 77.0139 48.6563 77.3852 48.4454C77.4762 48.394 77.4768 48.3937 77.8973 48.1569L79.166 47.4405L79.3945 47.3137ZM82.2614 39.4252C82.5124 39.4372 82.7604 39.5175 82.934 39.6386L86.7903 41.8241L87.0045 41.9423C87.0199 41.951 88.306 42.6804 90.9243 44.1651L91.1385 44.2863C91.3477 44.4052 91.5189 44.5746 91.6375 44.7794C91.7547 44.9821 91.816 45.2127 91.8139 45.4425L91.8154 49.7009C91.8154 50.0944 91.3804 50.3403 91.0329 50.1434L89.3694 49.2007C89.2084 49.1094 89.1091 48.9405 89.1091 48.7582V46.1993L85.7213 44.2776C85.6921 44.2635 85.6255 44.2261 85.4423 44.1219L82.1977 42.2811L78.8216 44.1926C78.7893 44.2134 78.7888 44.2137 78.7696 44.2258C78.7579 44.2328 78.5342 44.3609 78.531 44.3627L75.2864 46.1993V54.0387L78.6755 55.9618C78.6972 55.9725 78.7444 55.998 78.9605 56.1204L79.03 56.1809L79.0877 56.2572C79.2159 56.3533 79.293 56.5024 79.2932 56.6624V58.5407C79.2932 58.9386 78.8503 59.1833 78.4976 58.9747L77.6065 58.4139L77.394 58.2957C77.3787 58.2873 76.1467 57.5901 73.471 56.0727L73.2585 55.9531C73.0489 55.8344 72.8768 55.6635 72.758 55.4586C72.6407 55.2555 72.5792 55.0246 72.5816 54.7955L72.5801 50.1189V45.4353C72.5801 45.1865 72.6522 44.9434 72.7854 44.7347C72.9172 44.5253 73.1078 44.3531 73.3062 44.2589L77.1755 42.0663L77.3867 41.9451C77.4569 41.9057 77.4578 41.9054 77.6008 41.8255L81.3067 39.7265L81.5223 39.6011C81.7477 39.4738 82.0029 39.4136 82.2614 39.4252Z" fill="#121212"/>
<path fill-rule="evenodd" clip-rule="evenodd" d="M97.3659 54.3825C97.2684 54.3825 97.1831 54.3466 97.1099 54.2753C97.0369 54.2038 97 54.1204 97 54.0252V44.736C97 44.6315 97.0369 44.5456 97.1099 44.479C97.1831 44.4121 97.2684 44.3789 97.3659 44.3789H99.4142C99.5215 44.3789 99.6091 44.4121 99.6776 44.479C99.7457 44.5456 99.7798 44.6315 99.7798 44.736V52.1389H104.169C104.276 52.1389 104.366 52.1745 104.439 52.246C104.513 52.3176 104.549 52.4055 104.549 52.5104V54.0252C104.549 54.13 104.513 54.2159 104.439 54.2825C104.366 54.3491 104.276 54.3825 104.169 54.3825H97.3659ZM105.206 54.3825C105.128 54.3825 105.058 54.3516 104.994 54.2895C104.931 54.2275 104.899 54.1584 104.899 54.0822C104.899 54.0252 104.904 53.9823 104.914 53.9536L108.323 44.7933C108.42 44.5169 108.615 44.3789 108.908 44.3789H111.19C111.483 44.3789 111.678 44.5169 111.775 44.7933L115.184 53.9536C115.194 53.9823 115.199 54.0252 115.199 54.0822C115.199 54.1584 115.167 54.2275 115.104 54.2895C115.04 54.3516 114.97 54.3825 114.892 54.3825H112.99C112.756 54.3825 112.59 54.2776 112.492 54.0679L111.965 52.6819H108.133L107.606 54.0679C107.508 54.2776 107.342 54.3825 107.108 54.3825H105.206ZM108.751 50.5388H111.355L110.053 46.8945L108.751 50.5388ZM116.694 54.3825C116.587 54.3825 116.497 54.3491 116.424 54.2825C116.351 54.2158 116.314 54.13 116.314 54.0252V44.7503C116.314 44.6457 116.351 44.5574 116.424 44.4861C116.497 44.4146 116.587 44.3789 116.694 44.3789H118.348C118.591 44.3789 118.767 44.4837 118.874 44.6932L121.391 49.0947L123.922 44.6932C124.029 44.4837 124.205 44.3789 124.448 44.3789H126.102C126.209 44.3789 126.299 44.4146 126.372 44.4861C126.445 44.5574 126.482 44.6457 126.482 44.7503V54.0252C126.482 54.13 126.445 54.2158 126.372 54.2825C126.299 54.3491 126.209 54.3825 126.102 54.3825H124.244C124.146 54.3825 124.061 54.3466 123.988 54.2753C123.914 54.2038 123.878 54.1204 123.878 54.0252V48.8231L122.298 51.653C122.171 51.8721 122 51.9816 121.786 51.9816H120.996C120.801 51.9816 120.63 51.8721 120.484 51.653L118.918 48.8231V54.0252C118.918 54.13 118.882 54.2158 118.809 54.2825C118.735 54.3491 118.645 54.3825 118.538 54.3825H116.694ZM128.833 54.3825C128.736 54.3825 128.65 54.3466 128.577 54.2753C128.504 54.2038 128.468 54.1204 128.468 54.0252V44.7503C128.468 44.6457 128.502 44.5574 128.57 44.4861C128.638 44.4146 128.726 44.3789 128.833 44.3789H133.354C134.593 44.3789 135.515 44.6265 136.119 45.122C136.724 45.6174 137.026 46.3223 137.026 47.237C137.026 47.6944 136.902 48.0898 136.653 48.4231C136.405 48.7566 136.129 48.9995 135.827 49.152C136.227 49.3234 136.563 49.6068 136.836 50.0023C137.109 50.3976 137.246 50.8431 137.246 51.3384C137.246 52.3006 136.921 53.0486 136.273 53.5822C135.624 54.1156 134.695 54.3825 133.486 54.3825H128.833ZM133.051 48.3363C133.411 48.3363 133.689 48.2411 133.884 48.0505C134.079 47.8599 134.177 47.6125 134.177 47.3078C134.177 47.0124 134.082 46.7721 133.891 46.5864C133.701 46.4005 133.421 46.3078 133.051 46.3078H131.223V48.3363H133.051ZM133.182 52.4522C133.562 52.4522 133.857 52.3449 134.067 52.1307C134.276 51.9166 134.381 51.6524 134.381 51.338C134.381 51.0142 134.274 50.7453 134.06 50.5308C133.845 50.3167 133.553 50.2096 133.182 50.2096H131.223V52.4522H133.182ZM139.184 54.3825C139.086 54.3825 139.001 54.3466 138.928 54.2753C138.855 54.2038 138.818 54.1204 138.818 54.0252V44.7503C138.818 44.6457 138.852 44.5574 138.92 44.4861C138.989 44.4146 139.077 44.3789 139.184 44.3789H143.032C144.475 44.3789 145.597 44.7146 146.397 45.3864C147.196 46.0579 147.616 47.0226 147.654 48.2802C147.664 48.5565 147.669 48.9234 147.669 49.3807C147.669 49.838 147.664 50.1998 147.654 50.4667C147.557 53.0771 146.04 54.3825 143.105 54.3825H139.184ZM143.032 52.2387C143.646 52.2387 144.099 52.0958 144.392 51.8101C144.685 51.5243 144.841 51.0668 144.86 50.4379C144.88 50.1617 144.889 49.8045 144.889 49.3662C144.889 48.9279 144.88 48.5754 144.86 48.3087C144.841 47.699 144.672 47.2488 144.356 46.9583C144.038 46.6676 143.573 46.5223 142.958 46.5223H141.568V52.2387H143.032ZM148.766 54.3825C148.688 54.3825 148.618 54.3516 148.554 54.2895C148.491 54.2275 148.46 54.1584 148.46 54.0822C148.46 54.0252 148.464 53.9823 148.473 53.9536L151.883 44.7933C151.98 44.5169 152.174 44.3789 152.468 44.3789H154.75C155.042 44.3789 155.238 44.5169 155.335 44.7933L158.744 53.9536C158.754 53.9823 158.758 54.0252 158.758 54.0822C158.758 54.1584 158.727 54.2275 158.664 54.2895C158.6 54.3516 158.529 54.3825 158.452 54.3825H156.55C156.316 54.3825 156.15 54.2776 156.052 54.0679L155.525 52.6819H151.692L151.166 54.0679C151.068 54.2776 150.902 54.3825 150.668 54.3825H148.766ZM152.306 50.5388H154.91L153.608 46.8945L152.306 50.5388Z" fill="#121212"/>
<path fill-rule="evenodd" clip-rule="evenodd" d="M161.795 54.5251C161.688 54.5251 161.598 54.4917 161.525 54.4251C161.451 54.3585 161.415 54.2726 161.415 54.1678V46.8508H158.84C158.733 46.8508 158.643 46.8174 158.57 46.7508C158.496 46.6841 158.459 46.5984 158.459 46.4935V44.8929C158.459 44.7884 158.496 44.7001 158.57 44.6287C158.643 44.5572 158.733 44.5215 158.84 44.5215H166.785C166.891 44.5215 166.982 44.5572 167.054 44.6287C167.128 44.7001 167.164 44.7884 167.164 44.8929V46.4935C167.164 46.5984 167.128 46.6841 167.054 46.7508C166.982 46.8174 166.891 46.8508 166.785 46.8508H164.209V54.1678C164.209 54.2726 164.172 54.3585 164.099 54.4251C164.027 54.4917 163.936 54.5251 163.83 54.5251H161.795ZM168.821 54.5251C168.725 54.5251 168.639 54.4893 168.565 54.4179C168.493 54.3464 168.456 54.263 168.456 54.1678V44.8929C168.456 44.7884 168.49 44.7001 168.559 44.6287C168.627 44.5572 168.715 44.5215 168.821 44.5215H175.727C175.835 44.5215 175.925 44.5572 175.998 44.6287C176.07 44.7001 176.108 44.7884 176.108 44.8929V46.3078C176.108 46.4127 176.07 46.4983 175.998 46.5648C175.925 46.6317 175.835 46.6651 175.727 46.6651H171.104V48.4801H175.405C175.512 48.4801 175.602 48.5158 175.676 48.5871C175.749 48.6587 175.786 48.7467 175.786 48.8516V50.152C175.786 50.2568 175.749 50.3449 175.676 50.4164C175.602 50.4878 175.512 50.5237 175.405 50.5237H171.104V52.3815H175.844C175.952 52.3815 176.042 52.4172 176.115 52.4885C176.187 52.5601 176.225 52.6481 176.225 52.7529V54.1678C176.225 54.2726 176.187 54.3585 176.115 54.4251C176.042 54.4917 175.952 54.5251 175.844 54.5251H168.821ZM181.724 54.6681C180.779 54.6681 179.973 54.5348 179.31 54.2679C178.648 54.0013 178.146 53.6488 177.803 53.2102C177.463 52.7724 177.282 52.2959 177.263 51.7813C177.263 51.6956 177.294 51.6242 177.358 51.5669C177.421 51.5099 177.497 51.4813 177.584 51.4813H179.531C179.648 51.4813 179.742 51.5003 179.815 51.5386C179.889 51.5765 179.969 51.6431 180.056 51.7383C180.184 51.967 180.381 52.1552 180.649 52.303C180.917 52.4507 181.275 52.5245 181.724 52.5245C182.252 52.5245 182.656 52.4458 182.939 52.2889C183.222 52.1316 183.362 51.9149 183.362 51.6385C183.362 51.4386 183.29 51.274 183.143 51.1456C182.998 51.0169 182.764 50.9023 182.441 50.8024C182.12 50.7026 181.656 50.5906 181.052 50.4667C179.871 50.2381 178.988 49.8903 178.403 49.4233C177.818 48.9566 177.527 48.2896 177.527 47.4228C177.527 46.832 177.694 46.3056 178.03 45.8436C178.366 45.3814 178.845 45.0219 179.464 44.7646C180.083 44.5073 180.803 44.3789 181.622 44.3789C182.48 44.3789 183.225 44.5242 183.853 44.8145C184.482 45.1053 184.965 45.4672 185.301 45.9006C185.638 46.3343 185.817 46.7604 185.836 47.1798C185.836 47.2654 185.806 47.3394 185.747 47.4013C185.689 47.4633 185.617 47.4941 185.528 47.4941H183.481C183.266 47.4941 183.1 47.4085 182.983 47.2368C182.924 47.0368 182.773 46.8678 182.529 46.7296C182.286 46.5916 181.983 46.5225 181.622 46.5225C181.213 46.5225 180.895 46.5939 180.671 46.7368C180.447 46.8796 180.335 47.0893 180.335 47.3655C180.335 47.6419 180.482 47.8586 180.773 48.0158C181.067 48.1732 181.613 48.3326 182.412 48.4945C183.328 48.6565 184.059 48.859 184.599 49.1018C185.141 49.3447 185.54 49.6594 185.799 50.045C186.058 50.431 186.187 50.9193 186.187 51.5099C186.187 52.1577 185.996 52.7198 185.617 53.1962C185.236 53.6726 184.709 54.0369 184.036 54.2895C183.362 54.542 182.592 54.6681 181.724 54.6681ZM190.223 54.5251C190.117 54.5251 190.026 54.4917 189.954 54.4251C189.88 54.3585 189.843 54.2726 189.843 54.1678V46.8508H187.268C187.162 46.8508 187.071 46.8174 186.999 46.7508C186.925 46.6841 186.889 46.5984 186.889 46.4935V44.8929C186.889 44.7884 186.925 44.7001 186.999 44.6287C187.071 44.5572 187.162 44.5215 187.268 44.5215H195.212C195.32 44.5215 195.411 44.5572 195.483 44.6287C195.557 44.7001 195.593 44.7884 195.593 44.8929V46.4935C195.593 46.5984 195.557 46.6841 195.483 46.7508C195.411 46.8174 195.32 46.8508 195.212 46.8508H192.638V54.1678C192.638 54.2726 192.601 54.3585 192.528 54.4251C192.456 54.4917 192.365 54.5251 192.257 54.5251H190.223Z" fill="#121212"/>
</svg>
